PathFileType	4	(X/Y/Z)	OpenSim_Sub06_EMGBaseline_Gyro.trc
DataRate	CameraRate	NumFrames	NumMarkers	Units	OrigDataRate	OrigDataStartFrame	OrigNumFrames
100	100	20	8	m	100	1	8270
Frame#	Time	torso_imu_offset_imu	pelvis_imu_offset_imu	tibia_r_imu_offset_imu	femur_r_imu_offset_imu	tibia_l_imu_offset_imu	femur_l_imu_offset_imu	toes_r_imu_offset_imu	toes_l_imu_offset_imu
				X1	Y1	Z1	X2	Y2	Z2	X3	Y3	Z3	X4	Y4	Z4	X5	Y5	Z5	X6	Y6	Z6	X7	Y7	Z7	X8		Y8	Z8	

1	0	-0.08504623	0.13556242	-0.05891343	-0.08927484	-0.03339295	-0.03684471	-0.06104725	-0.00274504	-0.04103322	-0.07031808	0.02516005	0.01802514	-0.03192145	0.01301136	0.04908471	-0.10621494	-0.03783242	0.05899915	0.01555419	0.00740332	-0.00104093	-0.00380134	0.01269020	0.00398177
2	0.01000000	-0.07994469	0.13544021	-0.05672319	-0.08446437	-0.03744631	-0.03041606	-0.04999291	0.00200119	-0.04143281	-0.06345191	0.02819270	0.02099842	-0.02414299	0.01134832	0.05316369	-0.09825005	-0.03160908	0.05777552	0.01660859	0.00861116	0.00059937	-0.00775907	0.00930394	0.00182767
3	0.02000000	-0.08414173	0.13508554	-0.05740540	-0.08001975	-0.03567829	-0.02479526	-0.03622948	-0.00044490	-0.04392075	-0.05806192	0.02302681	0.02055203	-0.01897824	0.01103152	0.05455984	-0.08655827	-0.03084291	0.05695218	0.01700039	0.01303756	-0.00138883	-0.00267843	0.01345191	-0.00046730
4	0.03000000	-0.08249856	0.14084863	-0.05927947	-0.07741027	-0.03875159	-0.02430886	-0.03533037	0.00025516	-0.04269786	-0.05357684	0.02367322	0.01952579	-0.00778175	0.01767928	0.05602153	-0.07990975	-0.02656297	0.04922131	0.01907410	0.01078545	-0.00264500	-0.00584450	0.01718456	0.00288221
5	0.04000000	-0.07693270	0.13642263	-0.05813569	-0.07619097	-0.04118590	-0.01916159	-0.03357889	0.00042121	-0.04510897	-0.04594186	0.02147589	0.02118315	-0.00127638	0.01354345	0.05452027	-0.06942221	-0.02783321	0.05613693	0.01308844	0.01531753	-0.00513430	-0.01012419	0.01684434	0.00673949
6	0.05000000	-0.07829612	0.13754835	-0.05457817	-0.06977024	-0.04854357	-0.01595741	-0.02903077	0.00343320	-0.04978117	-0.03708133	0.01842840	0.01524536	0.00252119	0.01418554	0.05947406	-0.06819183	-0.02650517	0.05140670	0.01742554	0.01811375	-0.00319195	-0.00632875	0.01600144	0.00779293
7	0.06000000	-0.07035080	0.13670899	-0.05358444	-0.06921437	-0.04618526	-0.01561888	-0.02926018	0.00165423	-0.05114967	-0.02870081	0.01680311	0.01253507	-0.00499028	0.01637158	0.05725070	-0.06544515	-0.03246295	0.05410227	0.01733613	0.02031185	-0.00880455	-0.00714609	0.01871102	0.00812058
8	0.07000000	-0.06327400	0.13422556	-0.05384416	-0.06410152	-0.05309180	-0.01541555	-0.02910263	0.00622345	-0.05500699	-0.01925792	0.00599692	0.00814907	-0.01303976	0.01497282	0.05557586	-0.06240003	-0.03346885	0.05181220	0.01687529	0.01628624	-0.01969893	-0.01113252	0.01384102	0.01585344
9	0.08000000	-0.06236488	0.12973630	-0.05273400	-0.06046316	-0.05803618	-0.01235836	-0.02852404	0.00911333	-0.05409364	-0.01444541	-0.00090247	0.00485360	-0.01170142	0.01560574	0.05546957	-0.06394466	-0.03562615	0.05181448	0.05044398	0.00109773	-0.03320398	-0.03925732	-0.00497697	0.02826156
10	0.09000000	-0.05377058	0.12460580	-0.05301861	-0.05220644	-0.06547150	-0.00971617	-0.02758463	0.00966626	-0.06686070	-0.00620813	-0.00917392	0.00256605	-0.01348706	0.02638210	0.06782344	-0.06868956	-0.03959968	0.04979155	0.02980379	0.02423337	-0.03365078	-0.04853807	0.00378501	0.03359866
11	0.10000000	-0.04374076	0.11707780	-0.05344943	-0.04385009	-0.07028343	-0.00417496	-0.00272634	0.02343677	-0.11784578	0.00560633	-0.01947468	0.00217281	-0.06458451	0.04267292	0.12752990	-0.06838553	-0.04218604	0.04612521	0.01415709	0.04683129	-0.00859990	0.03090870	0.03647104	0.00991375
12	0.11000000	-0.03859232	0.11264416	-0.05285313	-0.04592158	-0.08021157	-0.00358082	0.02400571	0.02652107	-0.17184476	0.01067690	-0.01843751	0.01013377	-0.10449848	0.04572044	0.18168823	-0.05903706	-0.03714844	0.04373226	0.01474688	0.03173477	-0.01331566	0.00647123	0.01276984	0.00644197
13	0.12000000	-0.03207504	0.11406907	-0.04802362	-0.03886346	-0.08699228	0.00599453	0.00150426	0.01003579	-0.18214095	0.00765455	-0.00775097	0.00445336	-0.05805863	0.03934574	0.16939129	-0.05150310	-0.03291253	0.04394641	0.02218127	0.03160009	-0.01432751	-0.01722793	0.01226038	0.00547581
14	0.13000000	-0.03083868	0.11613327	-0.05123514	-0.04057348	-0.08293747	0.00053234	-0.04540602	-0.00451782	-0.14316866	0.01422807	-0.00773726	-0.00012807	-0.01973561	0.04104611	0.11972478	-0.06874184	-0.03237444	0.05364982	0.02118047	0.03556718	-0.01356248	-0.00223555	0.00902314	0.01064635
15	0.14000000	-0.02521491	0.12076811	-0.04475604	-0.04018221	-0.08264609	0.00542708	-0.01632128	0.01219299	-0.11382101	0.02316200	-0.01661364	-0.01563959	-0.02691552	0.04032184	0.08458624	-0.09406865	-0.04695921	0.08009709	0.02102943	0.03037623	-0.01809930	-0.02508084	0.00575264	0.02260738
16	0.15000000	-0.01800964	0.12244133	-0.04398005	-0.04094163	-0.07391728	0.00446980	0.03651251	0.03309856	-0.10619497	0.04083637	-0.03246774	-0.03835056	-0.03722432	0.03480392	0.09494857	-0.10223679	-0.06906878	0.10345616	0.01993313	0.03596008	-0.01682264	-0.01779002	0.01068554	0.02332063
17	0.16000000	-0.01414627	0.12187723	-0.04259038	-0.03641263	-0.06600702	0.00351464	0.02749657	0.03056280	-0.11277279	0.04966807	-0.04388344	-0.05552322	-0.00015238	0.02494580	0.12319412	-0.08877675	-0.07918691	0.11207035	0.01565253	0.03766905	-0.02347326	-0.01030308	0.01564285	0.02628354
18	0.17000000	-0.01724201	0.12111578	-0.04193438	-0.02736159	-0.05790809	0.00178254	-0.01627841	0.01903441	-0.11865887	0.04169858	-0.04103351	-0.06467644	0.03731381	0.03253321	0.13663628	-0.05186053	-0.06758474	0.10311112	0.02338187	0.03416074	-0.02750467	-0.00620237	0.01624382	0.02287108
19	0.18000000	-0.01430922	0.11072333	-0.03541190	-0.02289675	-0.05197608	0.00549209	-0.04509264	0.02329159	-0.12463036	0.02388622	-0.03212288	-0.05709716	0.04139731	0.03671136	0.14503169	-0.00890166	-0.04349533	0.08057308	0.02429561	0.04048755	-0.02095011	-0.01656891	0.00433953	0.02299126
20	0.19000000	0.00083469	0.10031553	-0.03554345	-0.01318660	-0.04881632	0.00360479	-0.03277717	0.02800987	-0.14292499	0.00243222	-0.01273755	-0.04828956	0.02685604	0.03913297	0.14439241	0.01782452	-0.02094416	0.06735904	0.02353922	0.04101608	-0.01903654	-0.00172641	0.00551788	0.01776010
